# xmcd
#
# Track frame offsets:
#	150
#	11992
#	22354
#	34337
#	58429
#	68932
#	82292
#	95233
#	107545
#	124888
#
# Disc length: 1813 seconds
#
# Revision: 1
# Processed by: cddbd v1.5.1PL0 Copyright (c) Steve Scherf et al.
# Submitted via: audiograbber 1.83.01
#
DISCID=9e07130a
DTITLE=Mark Grothier - The Ghost Of The Pony Express
DYEAR=1900
DGENRE=Country
TTITLE0=The Ghost Of The Pony Express
TTITLE1=North Dakota Country
TTITLE2='Fore' In The Morning
TTITLE3=My Heros Have Always Been Cowboys
TTITLE4=The Auctioneer
TTITLE5=Cow Patty
TTITLE6=How Far Is Heaven
TTITLE7=Let Jessie Rob The Train
TTITLE8=Old Dogs And Children And Watermelon Wine
TTITLE9=I've Been Everywhere
EXTD=
EXTT0=
EXTT1=
EXTT2=
EXTT3=
EXTT4=
EXTT5=
EXTT6=
EXTT7=
EXTT8=
EXTT9=
PLAYORDER=
